<?xml version="1.0" encoding="utf-8"?>
<!-- Generator: Adobe Illustrator 25.4.1, SVG Export Plug-In . SVG Version: 6.00 Build 0)  -->
<svg version="1.1" id="Layer_1" xmlns="http://www.w3.org/2000/svg" xmlns:xlink="http://www.w3.org/1999/xlink" x="0px" y="0px"
	 viewBox="0 0 142.9 170.78" style="enable-background:new 0 0 142.9 170.78;" xml:space="preserve">
<style type="text/css">
	.st0{fill:#E7AEBB;}
	.st1{fill:#3C3C3B;}
</style>
<g>
	<path class="st0" d="M71.45,11.39v136.67c0,10.71-8.34,19.86-19.05,20.21c-0.38,0.01-0.77,0.01-1.15,0.01
		c-0.94-0.02-1.87-0.11-2.78-0.25c-7.21-1.15-13.34-6.09-16.11-12.75c-0.68-1.61-1.16-3.32-1.41-5.1c-0.24-1.65-0.26-3.26-0.11-4.81
		c0.22-2.34-1.62-4.36-3.98-4.36h-0.05c-1.77,0-3.5-0.22-5.14-0.64c-9.11-2.29-15.84-10.53-15.84-20.34c0-3.32,0.78-6.45,2.15-9.24
		c2.54-5.12,1.86-11.23-1.5-15.86c-2.5-3.45-3.98-7.69-3.98-12.28c0-4.3,1.3-8.29,3.52-11.61c2.54-3.81,3.16-8.53,2.24-13.01
		c-0.28-1.37-0.42-2.78-0.42-4.23c0-10,7-18.35,16.36-20.45c0.15-0.04,0.3-0.07,0.46-0.1c1.24-0.23,2.15-1.32,2.15-2.58v0
		c0-0.41,0.01-0.82,0.05-1.22c0.57-7.73,6.61-13.94,14.27-14.78c0.59-0.07,1.18-0.1,1.78-0.1l0.15,0c0.76,0,1.43-0.48,1.68-1.2
		c0.2-0.57,0.42-1.12,0.68-1.66c2.68-5.65,8.54-9.49,15.27-9.19c2.3,0.1,4.49,0.71,6.46,1.71c0.02,0.01,0.03,0.02,0.05,0.02
		C69.85,5.61,71.45,8.41,71.45,11.39z"/>
	<path class="st1" d="M51.71,170.78c-0.17,0-0.34,0-0.51-0.01c-0.99-0.02-2.03-0.11-3.1-0.28c-8-1.28-14.91-6.74-18.04-14.26
		c-0.77-1.82-1.3-3.75-1.58-5.71c-0.25-1.76-0.3-3.58-0.13-5.39c0.05-0.57-0.22-0.96-0.38-1.14c-0.17-0.18-0.53-0.49-1.11-0.49
		c-2.01,0-3.95-0.24-5.81-0.72c-10.43-2.62-17.72-11.98-17.72-22.76c0-3.61,0.81-7.09,2.41-10.34c2.1-4.23,1.6-9.32-1.28-13.29
		C1.54,92.37,0,87.62,0,82.65c0-4.65,1.36-9.14,3.94-13c2.05-3.07,2.71-7.02,1.87-11.12C5.5,57,5.34,55.41,5.34,53.8
		c0-11.06,7.53-20.47,18.31-22.89c0.12-0.03,0.33-0.08,0.55-0.12c0.06-0.01,0.1-0.06,0.1-0.12c0-0.58,0.02-1.04,0.06-1.47
		c0.65-8.86,7.59-16.04,16.49-17.02c0.54-0.06,1.1-0.1,1.7-0.11c0.2-0.53,0.4-1.01,0.61-1.45C46.38,3.85,53.32-0.32,60.8,0.02
		C63.4,0.13,65.92,0.8,68.28,2c3.52,1.79,5.67,5.38,5.67,9.39v136.67c0,12.14-9.63,22.32-21.47,22.71
		C52.23,170.78,51.97,170.78,51.71,170.78z M42.91,17.07c-0.53,0-1.02,0.03-1.48,0.08c-6.52,0.72-11.59,5.96-12.07,12.48
		c-0.04,0.38-0.04,0.71-0.04,1.04c0,2.46-1.76,4.58-4.19,5.04c-0.1,0.02-0.19,0.04-0.29,0.06c-8.44,1.9-14.5,9.47-14.5,18.03
		c0,1.28,0.12,2.53,0.37,3.73c1.11,5.41,0.19,10.71-2.61,14.9C6.07,75.46,5,78.99,5,82.65c0,3.91,1.21,7.65,3.5,10.81
		c3.98,5.48,4.64,12.55,1.72,18.44c-1.25,2.55-1.89,5.29-1.89,8.13c0,8.48,5.74,15.85,13.95,17.92c1.47,0.38,2.99,0.57,4.53,0.57
		c1.88,0,3.63,0.77,4.86,2.12c1.23,1.35,1.83,3.16,1.66,4.98c-0.13,1.42-0.1,2.83,0.1,4.21c0.22,1.55,0.63,3.05,1.24,4.48
		c2.47,5.94,7.91,10.25,14.2,11.25c0.84,0.13,1.66,0.2,2.44,0.22c0.35,0.01,0.69,0.01,1.03-0.01c9.16-0.3,16.62-8.24,16.62-17.71
		V11.39c0-2.09-1.13-4.02-2.89-4.91c-1.77-0.9-3.6-1.38-5.48-1.46c-5.47-0.24-10.55,2.8-12.9,7.76c-0.2,0.41-0.38,0.87-0.58,1.42
		c-0.6,1.72-2.23,2.87-4.04,2.87H42.91z"/>
</g>
<g>
	<path class="st0" d="M12.55,67.07c0,0,3.43,11.33,17.89,9.54"/>
	<path class="st1" d="M27.49,79.3c-10.86,0-16.06-7.29-17.34-11.5c-0.4-1.32,0.35-2.72,1.67-3.12c1.32-0.4,2.71,0.34,3.11,1.65
		c0.13,0.41,3.13,9.28,15.19,7.8c1.38-0.18,2.62,0.8,2.79,2.17c0.17,1.37-0.8,2.62-2.17,2.79C29.61,79.23,28.53,79.3,27.49,79.3z"/>
</g>
<g>
	<path class="st0" d="M14.49,101.95c0,0,9.39-8.35,24.89,0"/>
	<path class="st1" d="M39.38,104.45c-0.4,0-0.81-0.1-1.18-0.3c-13.81-7.43-21.97-0.41-22.05-0.33c-1.03,0.92-2.61,0.83-3.53-0.21
		c-0.92-1.03-0.82-2.61,0.21-3.53c0.44-0.39,10.89-9.4,27.74-0.33c1.22,0.65,1.67,2.17,1.02,3.39
		C41.13,103.97,40.27,104.45,39.38,104.45z"/>
</g>
<g>
	<path class="st0" d="M71.45,58.12c0,0-13.08-20.54-32.96-2.09"/>
	<path class="st1" d="M71.45,60.62c-0.82,0-1.63-0.41-2.11-1.15c-0.08-0.12-4.96-7.54-12.78-8.52c-5.22-0.66-10.73,1.67-16.38,6.92
		c-1.01,0.94-2.59,0.88-3.53-0.13c-0.94-1.01-0.88-2.59,0.13-3.53c6.8-6.31,13.69-9.08,20.46-8.21
		c10.17,1.31,16.07,10.4,16.32,10.78c0.74,1.16,0.4,2.71-0.77,3.45C72.38,60.5,71.91,60.62,71.45,60.62z"/>
</g>
<g>
	<path class="st0" d="M44.6,128.63c0,0,15.69-9.69,26.85,11.63"/>
	<path class="st1" d="M71.45,142.76c-0.9,0-1.77-0.49-2.22-1.34c-3.47-6.63-7.69-10.67-12.54-12c-5.89-1.62-10.73,1.31-10.78,1.34
		c-1.17,0.73-2.71,0.36-3.44-0.81c-0.73-1.17-0.36-2.71,0.81-3.44c0.27-0.17,6.76-4.1,14.73-1.91c6.24,1.71,11.5,6.59,15.65,14.51
		c0.64,1.22,0.17,2.73-1.05,3.37C72.24,142.67,71.84,142.76,71.45,142.76z"/>
</g>
<g>
	<path class="st0" d="M39.38,86.89c0,0,25.64,4.92,21.76-19.83"/>
	<path class="st1" d="M44.32,89.79c-3.01,0-5.19-0.4-5.41-0.44c-1.36-0.26-2.24-1.57-1.98-2.93c0.26-1.35,1.57-2.24,2.92-1.98
		c0.13,0.03,10.56,1.91,15.91-3.29c2.91-2.83,3.89-7.43,2.91-13.7c-0.21-1.36,0.72-2.64,2.08-2.86c1.36-0.21,2.64,0.72,2.86,2.08
		c1.25,7.97-0.23,14.05-4.39,18.08C54.92,88.92,48.73,89.79,44.32,89.79z"/>
</g>
<g>
	<path class="st0" d="M46.84,21.6c0,0,0.45,11.33,15.8,12.22"/>
	<path class="st1" d="M62.64,36.33c-0.05,0-0.1,0-0.15,0C45.08,35.31,44.34,21.84,44.34,21.7c-0.05-1.38,1.02-2.54,2.4-2.6
		c1.36-0.08,2.53,1.01,2.6,2.38c0.06,0.95,0.9,9.12,13.45,9.85c1.38,0.08,2.43,1.26,2.35,2.64C65.06,35.3,63.95,36.33,62.64,36.33z"
		/>
</g>
<g>
	<path class="st0" d="M18.21,123.42c0,0,27.13-1.49,24.45,29.07"/>
	<path class="st1" d="M42.66,154.98c-0.07,0-0.15,0-0.22-0.01c-1.38-0.12-2.39-1.33-2.27-2.71c0.78-8.88-1.02-15.66-5.34-20.15
		c-6.38-6.63-16.38-6.2-16.48-6.2c-1.37,0.09-2.55-0.99-2.62-2.37c-0.07-1.38,0.98-2.55,2.36-2.63c0.5-0.03,12.32-0.58,20.32,7.69
		c5.4,5.58,7.67,13.68,6.76,24.09C45.04,154,43.95,154.98,42.66,154.98z"/>
</g>
<g>
	<path class="st0" d="M71.45,11.39v136.67c0,10.71,8.34,19.86,19.05,20.21c0.38,0.01,0.77,0.01,1.15,0.01
		c0.94-0.02,1.87-0.11,2.78-0.25c7.21-1.15,13.34-6.09,16.11-12.75c0.68-1.61,1.16-3.32,1.41-5.1c0.24-1.65,0.26-3.26,0.11-4.81
		c-0.22-2.34,1.62-4.36,3.98-4.36h0.05c1.77,0,3.5-0.22,5.14-0.64c9.11-2.29,15.84-10.53,15.84-20.34c0-3.32-0.78-6.45-2.15-9.24
		c-2.54-5.12-1.86-11.23,1.5-15.86c2.5-3.45,3.98-7.69,3.98-12.28c0-4.3-1.3-8.29-3.52-11.61c-2.54-3.81-3.16-8.53-2.24-13.01
		c0.28-1.37,0.42-2.78,0.42-4.23c0-10-7-18.35-16.36-20.45c-0.15-0.04-0.3-0.07-0.46-0.1c-1.24-0.23-2.15-1.32-2.15-2.58v0
		c0-0.41-0.01-0.82-0.05-1.22c-0.57-7.73-6.61-13.94-14.27-14.78c-0.59-0.07-1.18-0.1-1.78-0.1l-0.15,0c-0.76,0-1.43-0.48-1.68-1.2
		c-0.2-0.57-0.42-1.12-0.68-1.66c-2.68-5.65-8.54-9.49-15.27-9.19c-2.3,0.1-4.49,0.71-6.46,1.71c-0.02,0.01-0.03,0.02-0.05,0.02
		C73.05,5.61,71.45,8.41,71.45,11.39z"/>
	<path class="st1" d="M91.19,170.78c-0.26,0-0.52,0-0.78-0.01c-11.84-0.38-21.47-10.57-21.47-22.71V11.39c0-4.01,2.15-7.6,5.62-9.37
		l0.12-0.06c2.3-1.17,4.81-1.83,7.42-1.95c7.47-0.34,14.42,3.83,17.64,10.62c0.21,0.43,0.41,0.9,0.61,1.43
		c0.6,0.01,1.17,0.05,1.72,0.11c8.87,0.97,15.81,8.16,16.47,17.08c0.05,0.49,0.06,1.01,0.06,1.4c0,0.06,0.04,0.11,0.1,0.12
		c0.22,0.04,0.43,0.08,0.64,0.14c10.69,2.4,18.22,11.81,18.22,22.87c0,1.61-0.16,3.2-0.47,4.73c-0.84,4.1-0.18,8.05,1.87,11.12
		c2.58,3.85,3.94,8.35,3.94,13c0,4.97-1.54,9.72-4.46,13.75c-2.89,3.98-3.38,9.06-1.29,13.28c1.6,3.26,2.41,6.74,2.41,10.35
		c0,10.78-7.29,20.14-17.73,22.76c-1.85,0.47-3.79,0.72-5.75,0.72c-0.63,0-0.99,0.31-1.16,0.49c-0.16,0.18-0.43,0.57-0.38,1.14
		c0.17,1.81,0.13,3.63-0.13,5.4c-0.28,1.96-0.81,3.88-1.58,5.71c-3.12,7.51-10.03,12.97-18.02,14.25c-1.08,0.17-2.13,0.26-3.12,0.28
		C91.53,170.78,91.36,170.78,91.19,170.78z M82.94,5c-0.2,0-0.41,0-0.61,0.01c-1.89,0.08-3.72,0.57-5.44,1.44
		c-1.8,0.92-2.93,2.85-2.93,4.93v136.67c0,9.47,7.46,17.41,16.63,17.71c0.33,0.01,0.68,0.01,1.02,0.01c0.78-0.02,1.6-0.09,2.46-0.22
		c6.27-1,11.71-5.31,14.18-11.24c0.61-1.45,1.03-2.95,1.24-4.49c0.2-1.39,0.23-2.81,0.1-4.23c-0.17-1.81,0.43-3.62,1.66-4.97
		c1.23-1.35,2.98-2.12,4.81-2.12c1.59,0,3.11-0.19,4.57-0.56c8.22-2.07,13.96-9.43,13.96-17.92c0-2.84-0.64-5.58-1.89-8.14
		c-2.92-5.88-2.26-12.95,1.72-18.43c2.29-3.16,3.5-6.9,3.5-10.81c0-3.66-1.07-7.19-3.1-10.22c-2.8-4.19-3.72-9.49-2.61-14.9
		c0.25-1.2,0.37-2.45,0.37-3.73c0-8.56-6.06-16.14-14.41-18.01c-0.18-0.05-0.28-0.06-0.38-0.08c-2.42-0.45-4.18-2.57-4.18-5.04
		c0-0.33-0.01-0.65-0.04-0.97c-0.49-6.58-5.55-11.83-12.06-12.54c-0.49-0.06-0.97-0.08-1.51-0.08h-0.15c-1.81,0-3.44-1.15-4.04-2.87
		c-0.2-0.56-0.38-1-0.57-1.4C92.96,8,88.18,5,82.94,5z"/>
</g>
<g>
	<path class="st0" d="M130.35,67.07c0,0-3.43,11.33-17.89,9.54"/>
	<path class="st1" d="M115.41,79.3c-1.03,0-2.12-0.07-3.25-0.21c-1.37-0.17-2.34-1.42-2.17-2.79c0.17-1.37,1.43-2.34,2.79-2.17
		c12.09,1.49,15.07-7.42,15.19-7.8c0.42-1.31,1.81-2.05,3.13-1.64c1.31,0.41,2.05,1.79,1.65,3.1
		C131.47,72.01,126.27,79.3,115.41,79.3z"/>
</g>
<g>
	<path class="st0" d="M128.41,101.95c0,0-9.39-8.35-24.89,0"/>
	<path class="st1" d="M103.52,104.45c-0.89,0-1.75-0.48-2.2-1.31c-0.65-1.22-0.2-2.73,1.02-3.39c16.85-9.07,27.3-0.06,27.74,0.33
		c1.03,0.92,1.12,2.5,0.21,3.53c-0.91,1.03-2.49,1.12-3.52,0.22c-0.37-0.32-8.44-7.01-22.06,0.32
		C104.33,104.35,103.92,104.45,103.52,104.45z"/>
</g>
<g>
	<path class="st0" d="M71.45,58.12c0,0,13.08-20.54,32.96-2.09"/>
	<path class="st1" d="M71.45,60.62c-0.46,0-0.92-0.13-1.34-0.39c-1.16-0.74-1.51-2.29-0.77-3.45c0.25-0.39,6.14-9.48,16.32-10.78
		c6.77-0.87,13.65,1.89,20.46,8.21c1.01,0.94,1.07,2.52,0.13,3.53c-0.94,1.01-2.52,1.07-3.53,0.13c-5.66-5.26-11.19-7.58-16.42-6.91
		c-7.88,1.01-12.69,8.43-12.73,8.51C73.08,60.22,72.27,60.62,71.45,60.62z"/>
</g>
<g>
	<path class="st0" d="M98.3,128.63c0,0-15.69-9.69-26.85,11.63"/>
	<path class="st1" d="M71.45,142.76c-0.39,0-0.79-0.09-1.16-0.29c-1.22-0.64-1.7-2.15-1.06-3.37c4.14-7.92,9.41-12.79,15.65-14.51
		c7.97-2.19,14.46,1.74,14.73,1.91c1.17,0.73,1.54,2.27,0.81,3.44c-0.72,1.17-2.26,1.54-3.43,0.82c-0.08-0.04-5.03-2.96-10.86-1.33
		c-4.82,1.35-9.02,5.38-12.47,11.98C73.22,142.27,72.35,142.76,71.45,142.76z"/>
</g>
<g>
	<path class="st0" d="M103.52,86.89c0,0-25.64,4.92-21.76-19.83"/>
	<path class="st1" d="M98.58,89.79c-4.42,0-10.6-0.87-14.91-5.04c-4.16-4.02-5.64-10.1-4.39-18.08c0.21-1.36,1.5-2.29,2.86-2.08
		c1.36,0.21,2.3,1.49,2.08,2.86c-0.98,6.26,0,10.87,2.91,13.7c5.37,5.2,15.81,3.31,15.91,3.29c1.35-0.25,2.66,0.63,2.92,1.99
		c0.26,1.35-0.63,2.66-1.98,2.92C103.77,89.39,101.59,89.79,98.58,89.79z"/>
</g>
<g>
	<path class="st0" d="M96.06,21.6c0,0-0.45,11.33-15.8,12.22"/>
	<path class="st1" d="M80.26,36.33c-1.31,0-2.42-1.03-2.49-2.35c-0.08-1.38,0.97-2.56,2.35-2.64c12.94-0.75,13.43-9.46,13.45-9.83
		c0.05-1.38,1.23-2.46,2.6-2.4c1.38,0.05,2.45,1.22,2.4,2.6c0,0.14-0.74,13.61-18.15,14.62C80.36,36.32,80.31,36.33,80.26,36.33z"/>
</g>
<g>
	<path class="st0" d="M124.69,123.42c0,0-27.13-1.49-24.45,29.07"/>
	<path class="st1" d="M100.24,154.98c-1.28,0-2.37-0.98-2.49-2.28c-0.91-10.41,1.36-18.52,6.76-24.09c8-8.26,19.82-7.72,20.32-7.69
		c1.38,0.08,2.44,1.25,2.36,2.63c-0.08,1.38-1.23,2.46-2.63,2.36l0,0c-0.1,0-10.1-0.42-16.49,6.21c-4.32,4.49-6.12,11.27-5.34,20.15
		c0.12,1.38-0.9,2.59-2.27,2.71C100.38,154.98,100.31,154.98,100.24,154.98z"/>
</g>
</svg>
