<?xml version="1.0" encoding="utf-8"?>
<!-- Generator: Adobe Illustrator 25.4.1, SVG Export Plug-In . SVG Version: 6.00 Build 0)  -->
<svg version="1.1" id="Layer_1" xmlns="http://www.w3.org/2000/svg" xmlns:xlink="http://www.w3.org/1999/xlink" x="0px" y="0px"
	 viewBox="0 0 142.9 142.9" style="enable-background:new 0 0 142.9 142.9;" xml:space="preserve">
<style type="text/css">
	.st0{fill:#FCEA34;}
	.st1{fill:#FCD234;}
	.st2{fill:#3C3C3B;}
	.st3{fill:none;stroke:#3C3C3B;stroke-width:4;stroke-linecap:round;stroke-miterlimit:10;}
	.st4{opacity:0.3;fill:#FFFFFF;enable-background:new    ;}
	.st5{fill:#00E7E9;}
</style>
<circle class="st0" cx="71.4" cy="71.4" r="71.4"/>
<path class="st1" d="M142.9,71.4c0,39.5-32,71.4-71.4,71.4c-21.6,0-40.9-9.6-54-24.7c12.5,10.8,28.9,17.4,46.7,17.4
	c39.5,0,71.4-32,71.4-71.4c0-17.9-6.6-34.2-17.4-46.8C133.3,30.5,142.9,49.9,142.9,71.4z"/>
<ellipse class="st2" cx="98.9" cy="46.3" rx="11.6" ry="13.2"/>
<ellipse class="st2" cx="43.8" cy="46.3" rx="11.6" ry="13.2"/>
<path class="st3" d="M48.8,116.7c0-12.5,10.1-22.6,22.6-22.6s22.6,10.1,22.6,22.6"/>
<ellipse class="st4" cx="103.4" cy="41" rx="2.4" ry="3.2"/>
<ellipse class="st4" cx="49.1" cy="41" rx="2.4" ry="3.2"/>
<path class="st5" d="M112.9,66.4c0,1.3-1.1,2.4-2.4,2.4s-2.4-1.1-2.4-2.4c0-1.3,2.4-6.7,2.4-6.7S112.9,65.1,112.9,66.4z"/>
<path class="st5" d="M112.9,82c0,1.3-1.1,2.4-2.4,2.4s-2.4-1.1-2.4-2.4s2.4-6.7,2.4-6.7S112.9,80.7,112.9,82z"/>
<path class="st5" d="M30,66.4c0,1.3,1.1,2.4,2.4,2.4s2.4-1.1,2.4-2.4c0-1.3-2.4-6.7-2.4-6.7S30,65.1,30,66.4z"/>
<path class="st5" d="M30,82c0,1.3,1.1,2.4,2.4,2.4s2.4-1.1,2.4-2.4s-2.4-6.7-2.4-6.7S30,80.7,30,82z"/>
</svg>
