<?xml version="1.0" encoding="utf-8"?>
<!-- Generator: Adobe Illustrator 25.4.1, SVG Export Plug-In . SVG Version: 6.00 Build 0)  -->
<svg version="1.1" id="Layer_1" xmlns="http://www.w3.org/2000/svg" xmlns:xlink="http://www.w3.org/1999/xlink" x="0px" y="0px"
	 viewBox="0 0 142.9 142.9" style="enable-background:new 0 0 142.9 142.9;" xml:space="preserve">
<style type="text/css">
	.st0{fill:#FCEA34;}
	.st1{fill:#FCD234;}
	.st2{fill:#3C3C3B;}
	.st3{fill:none;stroke:#3C3C3B;stroke-width:6.1993;stroke-linecap:round;stroke-miterlimit:10;}
	.st4{opacity:0.3;fill:#FFFFFF;}
</style>
<circle class="st0" cx="71.45" cy="71.45" r="71.45"/>
<path class="st1" d="M142.9,71.45c0,39.46-31.99,71.45-71.45,71.45c-21.57,0-40.9-9.55-53.99-24.66
	c12.53,10.84,28.86,17.4,46.72,17.4c39.46,0,71.45-31.99,71.45-71.45c0-17.88-6.57-34.22-17.43-46.76
	C133.33,30.52,142.9,49.87,142.9,71.45z"/>
<ellipse class="st2" cx="98.9" cy="46.33" rx="11.62" ry="13.2"/>
<ellipse class="st2" cx="43.75" cy="46.33" rx="11.62" ry="13.2"/>
<path class="st3" d="M115.6,71.87c0,24.97-20.24,45.21-45.21,45.21S25.18,96.84,25.18,71.87"/>
<ellipse class="st4" cx="103.41" cy="40.98" rx="2.39" ry="3.2"/>
<ellipse class="st4" cx="49.11" cy="40.98" rx="2.39" ry="3.2"/>
</svg>
